HIERARCHY
ROOT pelvis
{
	OFFSET 0.003123 -0.351407 0.012037
	CHANNELS 6 Xposition Yposition Zposition Zrotation Yrotation Xrotation 
	JOINT left_hip
	{
		OFFSET 0.058189 -0.092763 -0.026001
		CHANNELS 3 Zrotation Yrotation Xrotation
		JOINT left_knee
		{
			OFFSET 0.054695 -0.378753 -0.009396
			CHANNELS 3 Zrotation Yrotation Xrotation
			JOINT left_ankle
			{
				OFFSET -0.043453 -0.403059 -0.031876
				CHANNELS 3 Zrotation Yrotation Xrotation
				JOINT left_foot
				{
					OFFSET 0.047257 -0.057997 0.118216
					CHANNELS 3 Zrotation Yrotation Xrotation
					End Site
					{
						OFFSET 0.000000 0.000000 0.000000
					}
				}
			}
		}
	}
	JOINT right_hip
	{
		OFFSET -0.063267 -0.103908 -0.021250
		CHANNELS 3 Zrotation Yrotation Xrotation
		JOINT right_knee
		{
			OFFSET -0.044210 -0.362380 -0.016824
			CHANNELS 3 Zrotation Yrotation Xrotation
			JOINT right_ankle
			{
				OFFSET 0.015417 -0.410728 -0.020192
				CHANNELS 3 Zrotation Yrotation Xrotation
				JOINT right_foot
				{
					OFFSET -0.038812 -0.058328 0.119049
					CHANNELS 3 Zrotation Yrotation Xrotation
					End Site
					{
						OFFSET 0.000000 0.000000 0.000000
					}
				}
			}
		}
	}
	JOINT spine_1
	{
		OFFSET -0.002763 0.109891 -0.027618
		CHANNELS 3 Zrotation Yrotation Xrotation
		JOINT spine_2
		{
			OFFSET 0.009448 0.131853 -0.005940
			CHANNELS 3 Zrotation Yrotation Xrotation
			JOINT spine_3
			{
				OFFSET -0.011330 0.052235 0.028447
				CHANNELS 3 Zrotation Yrotation Xrotation
				JOINT neck
				{
					OFFSET -0.012164 0.165167 -0.031615
					CHANNELS 3 Zrotation Yrotation Xrotation
					JOINT head
					{
						OFFSET 0.024783 0.160452 0.020737
						CHANNELS 3 Zrotation Yrotation Xrotation
						End Site
						{
							OFFSET 0.000000 0.000000 0.000000
						}
					}
				}
				JOINT left_collar
				{
					OFFSET 0.046364 0.084944 -0.007220
					CHANNELS 3 Zrotation Yrotation Xrotation
					JOINT left_shoulder
					{
						OFFSET 0.119239 0.057728 -0.015461
						CHANNELS 3 Zrotation Yrotation Xrotation
						JOINT left_elbow
						{
							OFFSET 0.254123 -0.072151 -0.042459
							CHANNELS 3 Zrotation Yrotation Xrotation
							JOINT left_wrist
							{
								OFFSET 0.251987 0.023221 -0.002472
								CHANNELS 3 Zrotation Yrotation Xrotation
								JOINT left_index_1
								{
									OFFSET 0.101902 -0.008688 0.019351
									CHANNELS 3 Zrotation Yrotation Xrotation
									JOINT left_index_2
									{
										OFFSET 0.030149 -0.011154 0.001151
										CHANNELS 3 Zrotation Yrotation Xrotation
										JOINT left_index_3
										{
											OFFSET 0.006504 -0.021577 -0.002433
											CHANNELS 3 Zrotation Yrotation Xrotation
											End Site
											{
												OFFSET 0.000000 0.000000 0.000000
											}
										}
									}
								}
								JOINT left_middle_1
								{
									OFFSET 0.109398 -0.006328 -0.003981
									CHANNELS 3 Zrotation Yrotation Xrotation
									JOINT left_middle_2
									{
										OFFSET 0.026472 -0.015218 -0.004641
										CHANNELS 3 Zrotation Yrotation Xrotation
										JOINT left_middle_3
										{
											OFFSET 0.005022 -0.023347 -0.001911
											CHANNELS 3 Zrotation Yrotation Xrotation
											End Site
											{
												OFFSET 0.000000 0.000000 0.000000
											}
										}
									}
								}
								JOINT left_pinky_1
								{
									OFFSET 0.084047 -0.014539 -0.043750
									CHANNELS 3 Zrotation Yrotation Xrotation
									JOINT left_pinky_2
									{
										OFFSET 0.012124 -0.014448 -0.005375
										CHANNELS 3 Zrotation Yrotation Xrotation
										JOINT left_pinky_3
										{
											OFFSET 0.003798 -0.018853 0.000167
											CHANNELS 3 Zrotation Yrotation Xrotation
											End Site
											{
												OFFSET 0.000000 0.000000 0.000000
											}
										}
									}
								}
								JOINT left_ring_1
								{
									OFFSET 0.097444 -0.009268 -0.027345
									CHANNELS 3 Zrotation Yrotation Xrotation
									JOINT left_ring_2
									{
										OFFSET 0.023561 -0.016057 -0.001895
										CHANNELS 3 Zrotation Yrotation Xrotation
										JOINT left_ring_3
										{
											OFFSET 0.004257 -0.023548 0.000814
											CHANNELS 3 Zrotation Yrotation Xrotation
											End Site
											{
												OFFSET 0.000000 0.000000 0.000000
											}
										}
									}
								}
								JOINT left_thumb_1
								{
									OFFSET 0.040636 -0.017977 0.025611
									CHANNELS 3 Zrotation Yrotation Xrotation
									JOINT left_thumb_2
									{
										OFFSET 0.021637 -0.017639 0.011623
										CHANNELS 3 Zrotation Yrotation Xrotation
										JOINT left_thumb_3
										{
											OFFSET 0.024002 -0.008356 0.006548
											CHANNELS 3 Zrotation Yrotation Xrotation
											End Site
											{
												OFFSET 0.000000 0.000000 0.000000
											}
										}
									}
								}
							}
						}
					}
				}
				JOINT right_collar
				{
					OFFSET -0.047695 0.084339 -0.013400
					CHANNELS 3 Zrotation Yrotation Xrotation
					JOINT right_shoulder
					{
						OFFSET -0.102578 0.053524 -0.012669
						CHANNELS 3 Zrotation Yrotation Xrotation
						JOINT right_elbow
						{
							OFFSET -0.271150 -0.036492 -0.026467
							CHANNELS 3 Zrotation Yrotation Xrotation
							JOINT right_wrist
							{
								OFFSET -0.249267 -0.004533 -0.015325
								CHANNELS 3 Zrotation Yrotation Xrotation
								JOINT right_index_1
								{
									OFFSET -0.099881 -0.011783 0.019600
									CHANNELS 3 Zrotation Yrotation Xrotation
									JOINT right_index_2
									{
										OFFSET -0.030148 -0.011154 0.001151
										CHANNELS 3 Zrotation Yrotation Xrotation
										JOINT right_index_3
										{
											OFFSET -0.006505 -0.021577 -0.002432
											CHANNELS 3 Zrotation Yrotation Xrotation
											End Site
											{
												OFFSET 0.000000 0.000000 0.000000
											}
										}
									}
								}
								JOINT right_middle_1
								{
									OFFSET -0.107376 -0.009422 -0.003734
									CHANNELS 3 Zrotation Yrotation Xrotation
									JOINT right_middle_2
									{
										OFFSET -0.026472 -0.015218 -0.004641
										CHANNELS 3 Zrotation Yrotation Xrotation
										JOINT right_middle_3
										{
											OFFSET -0.005022 -0.023347 -0.001911
											CHANNELS 3 Zrotation Yrotation Xrotation
											End Site
											{
												OFFSET 0.000000 0.000000 0.000000
											}
										}
									}
								}
								JOINT right_pinky_1
								{
									OFFSET -0.082027 -0.017634 -0.043503
									CHANNELS 3 Zrotation Yrotation Xrotation
									JOINT right_pinky_2
									{
										OFFSET -0.012123 -0.014448 -0.005374
										CHANNELS 3 Zrotation Yrotation Xrotation
										JOINT right_pinky_3
										{
											OFFSET -0.003798 -0.018852 0.000167
											CHANNELS 3 Zrotation Yrotation Xrotation
											End Site
											{
												OFFSET 0.000000 0.000000 0.000000
											}
										}
									}
								}
								JOINT right_ring_1
								{
									OFFSET -0.095423 -0.012362 -0.027099
									CHANNELS 3 Zrotation Yrotation Xrotation
									JOINT right_ring_2
									{
										OFFSET -0.023561 -0.016057 -0.001895
										CHANNELS 3 Zrotation Yrotation Xrotation
										JOINT right_ring_3
										{
											OFFSET -0.004257 -0.023548 0.000816
											CHANNELS 3 Zrotation Yrotation Xrotation
											End Site
											{
												OFFSET 0.000000 0.000000 0.000000
											}
										}
									}
								}
								JOINT right_thumb_1
								{
									OFFSET -0.038613 -0.021074 0.025861
									CHANNELS 3 Zrotation Yrotation Xrotation
									JOINT right_thumb_2
									{
										OFFSET -0.021636 -0.017639 0.011623
										CHANNELS 3 Zrotation Yrotation Xrotation
										JOINT right_thumb_3
										{
											OFFSET -0.024004 -0.008353 0.006547
											CHANNELS 3 Zrotation Yrotation Xrotation
											End Site
											{
												OFFSET 0.000000 0.000000 0.000000
											}
										}
									}
								}
							}
						}
					}
				}
			}
		}
	}
}
MOTION
Frames: 4
Frame Time: 0.050000
0.000027 0.934493 0.000587 -4.083705 9.311712 -1.023926 12.348810 -0.532535 5.374820 1.040602 0.441339 -4.553977 2.239721 9.656083 7.595052 0.000000 0.000000 0.000000 2.282759 0.663632 -5.186349 -0.019118 0.344114 12.792321 -1.250126 -0.370843 -4.241021 0.000000 0.000000 0.000000 -2.003374 -0.370382 5.826968 -2.144129 -1.572731 -13.673605 10.747505 -5.539321 19.123544 -1.719361 1.881587 -11.930532 0.000000 0.000000 0.000000 -0.952106 -13.463624 6.634534 -14.866409 -60.472872 -14.365516 16.219779 -5.596989 -0.064829 4.152882 -10.650380 -44.022222 -4.896006 -4.034966 -0.092130 -26.168617 -11.761280 -9.140183 0.000000 0.000000 0.000000 -14.772303 -11.054736 -4.487157 -13.054928 -13.858632 -26.165873 0.000000 0.000000 0.000000 -9.762778 -21.733731 -24.858590 -4.414070 -4.838623 -11.943518 0.000000 0.000000 0.000000 -19.656525 -16.671806 -5.099868 -2.513899 -12.803236 -29.315332 0.000000 0.000000 0.000000 13.730769 23.000007 6.356227 -13.464820 -12.221416 -1.672580 0.000000 0.000000 0.000000 11.766840 0.013369 -1.223775 49.243981 3.968651 -4.588965 8.924659 30.935810 1.539517 6.526192 4.352226 6.499024 17.426134 0.240293 0.306267 14.663614 -5.062312 5.542665 0.000000 0.000000 0.000000 14.428778 5.156729 -4.873179 26.233248 0.461940 -7.895633 0.000000 0.000000 0.000000 -2.174170 14.112713 -16.128145 39.558341 9.224933 -17.064894 0.000000 0.000000 0.000000 14.512367 5.490138 -4.165660 32.609111 7.401384 -15.426220 0.000000 0.000000 0.000000 -5.427343 -26.640942 25.591512 -0.144010 17.093696 -5.658648 0.000000 0.000000 0.000000 
-0.004096 0.934493 0.003227 -3.802850 8.812210 -0.967130 12.238877 -0.500500 5.186331 1.130568 0.353906 -3.753438 2.408624 10.036407 7.818821 0.000000 0.000000 0.000000 2.302999 0.687790 -5.378684 -0.126070 0.379327 13.286179 -1.195266 0.011683 -4.634446 0.000000 0.000000 0.000000 -1.100559 -0.462902 7.313907 -2.582346 -1.595660 -14.537095 10.605866 -5.644776 19.179241 -2.338549 1.919516 -11.957357 0.000000 0.000000 0.000000 -1.110175 -12.305425 6.068445 -18.092341 -59.929263 -12.647098 19.775758 -9.375473 -0.471995 4.833336 -7.247414 -42.818435 -4.477455 -4.697883 -0.173416 -25.969128 -12.990534 -11.551133 0.000000 0.000000 0.000000 -13.107313 -12.792590 -5.290307 -12.767799 -13.792806 -26.673466 0.000000 0.000000 0.000000 -8.515526 -22.810638 -26.296539 -3.502106 -3.938901 -10.080366 0.000000 0.000000 0.000000 -19.088349 -17.923631 -5.821093 -0.903720 -11.540167 -28.641709 0.000000 0.000000 0.000000 13.486659 21.243927 5.105504 -11.679510 -10.951098 -1.841142 0.000000 0.000000 0.000000 10.805974 0.773947 -0.664366 49.283529 4.682603 -4.416580 9.103908 30.248245 1.506214 5.029557 4.945956 6.261808 18.204432 0.992985 0.162484 16.864427 -7.138995 8.596512 0.000000 0.000000 0.000000 16.121664 4.509650 -4.765511 26.330817 0.238179 -7.374976 0.000000 0.000000 0.000000 -0.150470 13.047654 -15.063261 39.558169 8.709751 -15.987993 0.000000 0.000000 0.000000 16.188972 4.738304 -3.825752 33.165690 7.141026 -14.675076 0.000000 0.000000 0.000000 -5.377141 -26.779637 25.610168 1.031321 15.816831 -4.727463 0.000000 0.000000 0.000000 
-0.005980 0.934171 0.008507 -3.744207 8.857555 -0.669139 12.382731 -0.531807 4.806282 1.081543 0.281393 -3.075245 2.458372 10.091642 7.774184 0.000000 0.000000 0.000000 2.501143 0.715187 -5.568851 -0.251358 0.407360 13.648830 -1.319562 -0.087547 -4.960681 0.000000 0.000000 0.000000 0.195620 -0.465769 7.095392 -2.739904 -1.423834 -14.037748 10.129301 -5.118288 19.052837 -2.653991 1.938462 -11.960781 0.000000 0.000000 0.000000 -3.275594 -11.085675 5.454218 -28.384783 -54.967431 -7.749520 33.976272 -25.831982 -4.870081 5.459355 -8.037022 -39.996952 -3.761213 -4.571771 -0.323523 -27.766437 -9.986952 -8.049767 0.000000 0.000000 0.000000 -12.676669 -11.215581 -5.007710 -15.533103 -13.019461 -24.264678 0.000000 0.000000 0.000000 -6.726730 -21.165211 -25.850179 -6.417919 -4.814722 -11.478638 0.000000 0.000000 0.000000 -18.782187 -16.313453 -5.574107 -3.218505 -11.677723 -27.574144 0.000000 0.000000 0.000000 12.950692 22.439316 6.873564 -11.264474 -11.452072 -2.051093 0.000000 0.000000 0.000000 10.179161 -0.209971 -1.176178 49.550026 4.451874 -4.411283 8.639003 30.533320 1.448796 5.859508 4.960894 5.574612 17.403020 0.856205 0.208770 16.313321 -5.931783 6.711208 0.000000 0.000000 0.000000 15.310139 3.919546 -4.394570 26.294806 1.241532 -9.226860 0.000000 0.000000 0.000000 2.426219 11.692352 -14.270905 34.691389 9.760726 -19.494460 0.000000 0.000000 0.000000 17.013060 5.222574 -4.088777 32.165361 8.337864 -17.008395 0.000000 0.000000 0.000000 -5.651983 -27.505370 26.428472 -0.668158 18.147438 -6.250676 0.000000 0.000000 0.000000 
-0.005744 0.933848 0.015106 -3.776579 8.200321 -0.244235 12.319848 -0.494415 5.207779 1.187185 0.323470 -3.489443 2.726386 10.603354 7.999513 0.000000 0.000000 0.000000 2.595856 0.701530 -5.472880 -0.386803 0.440798 13.342959 -1.154826 0.505572 -5.225211 0.000000 0.000000 0.000000 1.672981 -0.459373 6.645456 -3.245027 -1.393747 -14.687181 9.853723 -4.266578 19.760048 -3.141386 1.948168 -11.799906 0.000000 0.000000 0.000000 -5.854897 -7.585744 3.488540 -39.576620 -47.266912 -4.154889 49.208041 -44.641676 -15.409702 5.040061 -9.456393 -37.237901 -5.679505 -5.504273 -0.346549 -26.344088 -6.688065 -5.004774 0.000000 0.000000 0.000000 -14.024449 -11.254933 -5.059801 -13.526884 -12.005135 -25.114091 0.000000 0.000000 0.000000 -7.723254 -19.911856 -24.547770 -6.169443 -5.082751 -12.357826 0.000000 0.000000 0.000000 -18.935571 -15.146381 -5.389179 -4.417719 -11.786541 -27.498246 0.000000 0.000000 0.000000 12.252004 22.271936 7.630860 -11.555174 -12.562128 -2.215307 0.000000 0.000000 0.000000 9.858764 -0.953359 -1.559125 49.751072 3.187036 -4.770356 8.272776 32.169504 1.517052 7.458002 5.202012 5.497586 16.922852 0.079096 0.379513 15.799382 -5.522002 6.178236 0.000000 0.000000 0.000000 15.274238 3.939870 -4.426918 25.396291 1.402049 -9.434991 0.000000 0.000000 0.000000 0.061338 13.217880 -15.851402 36.546477 9.541811 -18.264009 0.000000 0.000000 0.000000 16.261347 4.720498 -3.843188 31.231046 8.314749 -17.172650 0.000000 0.000000 0.000000 -5.494696 -26.718676 25.648655 -0.314058 16.621264 -5.575023 0.000000 0.000000 0.000000 
